# xmcd CD database file
#
# Track frame offsets:
#	150
#	21035
#	40032
#
# Disc length: 830 seconds
#
# Revision: 0
# Processed by: cddbd v1.5.1PL0 Copyright (c) Steve Scherf et al.
# Submitted via: CDex 1.51
#
DISCID=17033c03
DTITLE=cali≠gari - 若草色のシミーズ
DYEAR=2003
DGENRE=ロック (日本)
TTITLE0=君と僕 〜風雲立志編〜
TTITLE1=若草色のシミーズ
TTITLE2=ムーンライト白昼夢
EXTD=YEAR: 2003
EXTT0=
EXTT1=
EXTT2=
PLAYORDER=
